<svg width="102" height="32" viewBox="0 0 102 32" fill="none" xmlns="http://www.w3.org/2000/svg">
<path d="M99.1064 14.8095C99.1064 22.4363 89.9044 28.619 78.5532 28.619C67.202 28.619 58 22.4363 58 14.8095C58 7.18273 67.202 1 78.5532 1C89.9044 1 99.1064 7.18273 99.1064 14.8095Z" fill="white"/>
<path d="M100 30L81.234 21.0238L88.383 13.4286L100 30Z" fill="white"/>
<path d="M99.1064 14.8095C99.1064 22.4363 89.9044 28.619 78.5532 28.619C67.202 28.619 58 22.4363 58 14.8095C58 7.18273 67.202 1 78.5532 1C89.9044 1 99.1064 7.18273 99.1064 14.8095Z" stroke="white"/>
<path d="M100 30L81.234 21.0238L88.383 13.4286L100 30Z" stroke="white"/>
<path d="M0.0980001 21V8.22H5.012C6.428 8.22 7.61 8.508 8.558 9.084C9.518 9.648 10.238 10.416 10.718 11.388C11.21 12.348 11.456 13.416 11.456 14.592C11.456 15.888 11.186 17.016 10.646 17.976C10.118 18.936 9.368 19.68 8.396 20.208C7.436 20.736 6.308 21 5.012 21H0.0980001ZM7.892 14.592C7.892 13.596 7.634 12.798 7.118 12.198C6.614 11.586 5.912 11.28 5.012 11.28H3.608V17.94H5.012C5.936 17.94 6.644 17.622 7.136 16.986C7.64 16.35 7.892 15.552 7.892 14.592ZM12.6609 10.74V7.86H16.0809V10.74H12.6609ZM12.6609 21V11.532H16.0809V21H12.6609ZM21.6093 21.18C20.7813 21.18 19.9653 21.048 19.1613 20.784C18.3693 20.508 17.6973 20.112 17.1453 19.596L18.3153 17.49C18.9033 17.874 19.4673 18.174 20.0073 18.39C20.5593 18.606 21.0573 18.714 21.5013 18.714C21.9933 18.714 22.2393 18.57 22.2393 18.282C22.2393 18.126 22.1373 18 21.9333 17.904C21.7413 17.808 21.4293 17.694 20.9973 17.562C20.2533 17.298 19.6293 17.052 19.1253 16.824C18.6333 16.596 18.2613 16.32 18.0093 15.996C17.7693 15.66 17.6493 15.216 17.6493 14.664C17.6493 13.692 18.0093 12.894 18.7293 12.27C19.4493 11.646 20.4453 11.334 21.7173 11.334C22.3533 11.334 22.9893 11.436 23.6253 11.64C24.2733 11.832 24.8973 12.186 25.4973 12.702L24.2013 14.79C23.6013 14.418 23.0913 14.154 22.6713 13.998C22.2633 13.842 21.8973 13.764 21.5733 13.764C21.0693 13.764 20.8173 13.932 20.8173 14.268C20.8173 14.448 20.9133 14.586 21.1053 14.682C21.2973 14.778 21.6033 14.886 22.0233 15.006C22.8393 15.246 23.5053 15.492 24.0213 15.744C24.5373 15.984 24.9153 16.278 25.1553 16.626C25.4073 16.974 25.5333 17.43 25.5333 17.994C25.5333 18.99 25.1793 19.77 24.4713 20.334C23.7753 20.898 22.8213 21.18 21.6093 21.18ZM33.0748 21L30.9328 17.544L30.2488 18.3V21H26.8288V7.86H30.2488V15.042L32.7688 11.532H36.3688L33.1108 15.672L36.6928 21H33.0748ZM37.2154 17.76V11.532H40.6354V16.986C40.6354 17.394 40.7254 17.718 40.9054 17.958C41.0974 18.186 41.3554 18.3 41.6794 18.3C41.9434 18.3 42.2134 18.24 42.4894 18.12C42.7654 18 43.0414 17.736 43.3174 17.328V11.532H46.7374V17.22C46.7374 17.544 46.7854 17.772 46.8814 17.904C46.9774 18.024 47.1454 18.096 47.3854 18.12V21C46.7974 21.12 46.3174 21.18 45.9454 21.18C44.7814 21.18 44.1094 20.742 43.9294 19.866L43.8574 19.524C43.4134 20.112 42.8794 20.538 42.2554 20.802C41.6434 21.054 40.9474 21.18 40.1674 21.18C39.2194 21.18 38.4874 20.886 37.9714 20.298C37.4674 19.71 37.2154 18.864 37.2154 17.76ZM52.5819 21.18C51.7539 21.18 50.9379 21.048 50.1339 20.784C49.3419 20.508 48.6699 20.112 48.1179 19.596L49.2879 17.49C49.8759 17.874 50.4399 18.174 50.9799 18.39C51.5319 18.606 52.0299 18.714 52.4739 18.714C52.9659 18.714 53.2119 18.57 53.2119 18.282C53.2119 18.126 53.1099 18 52.9059 17.904C52.7139 17.808 52.4019 17.694 51.9699 17.562C51.2259 17.298 50.6019 17.052 50.0979 16.824C49.6059 16.596 49.2339 16.32 48.9819 15.996C48.7419 15.66 48.6219 15.216 48.6219 14.664C48.6219 13.692 48.9819 12.894 49.7019 12.27C50.4219 11.646 51.4179 11.334 52.6899 11.334C53.3259 11.334 53.9619 11.436 54.5979 11.64C55.2459 11.832 55.8699 12.186 56.4699 12.702L55.1739 14.79C54.5739 14.418 54.0639 14.154 53.6439 13.998C53.2359 13.842 52.8699 13.764 52.5459 13.764C52.0419 13.764 51.7899 13.932 51.7899 14.268C51.7899 14.448 51.8859 14.586 52.0779 14.682C52.2699 14.778 52.5759 14.886 52.9959 15.006C53.8119 15.246 54.4779 15.492 54.9939 15.744C55.5099 15.984 55.8879 16.278 56.1279 16.626C56.3799 16.974 56.5059 17.43 56.5059 17.994C56.5059 18.99 56.1519 19.77 55.4439 20.334C54.7479 20.898 53.7939 21.18 52.5819 21.18Z" fill="white"/>
<path d="M68.0905 21L65.9485 17.544L65.2645 18.3V21H61.8445V7.86H65.2645V15.042L67.7845 11.532H71.3845L68.1265 15.672L71.7085 21H68.0905ZM72.231 17.76V11.532H75.651V16.986C75.651 17.394 75.741 17.718 75.921 17.958C76.113 18.186 76.371 18.3 76.695 18.3C76.959 18.3 77.229 18.24 77.505 18.12C77.781 18 78.057 17.736 78.333 17.328V11.532H81.753V17.22C81.753 17.544 81.801 17.772 81.897 17.904C81.993 18.024 82.161 18.096 82.401 18.12V21C81.813 21.12 81.333 21.18 80.961 21.18C79.797 21.18 79.125 20.742 78.945 19.866L78.873 19.524C78.429 20.112 77.895 20.538 77.271 20.802C76.659 21.054 75.963 21.18 75.183 21.18C74.235 21.18 73.503 20.886 72.987 20.298C72.483 19.71 72.231 18.864 72.231 17.76ZM83.6397 21.954C84.1917 22.158 84.6597 22.26 85.0437 22.26C85.7757 22.26 86.1777 21.84 86.2497 21L82.8117 11.532H86.3217L88.1217 17.49L89.5797 11.532H92.7657L89.5617 22.134C89.3817 22.746 89.0877 23.28 88.6797 23.736C88.2717 24.204 87.7857 24.564 87.2217 24.816C86.6577 25.08 86.0517 25.212 85.4037 25.212C84.7917 25.212 84.2037 25.098 83.6397 24.87V21.954Z" fill="#2ECC71"/>
</svg>
